# xmcd CD database file
#
# Track frame offsets:
#	150
#	16664
#	35511
#	63592
#	84006
#	112488
#	129860
#	158144
#	183169
#
# Disc length: 2836 seconds
#
# Revision: 0
# Processed by: cddbd v1.5.2PL0 Copyright (c) Steve Scherf et al.
# Submitted via: CDex 1.70beta2
#
DISCID=670b1209
DTITLE=Al Cohn and Zoot Sims - Modern Jazz Modern Mainstream CD 087
DYEAR=2008
DGENRE=Jazz
TTITLE0=You Are A Lucky Guy
TTITLE1=Halley's Comet
TTITLE2=Chasin' The Blues
TTITLE3=Two Funky People
TTITLE4=The Wailing Boat
TTITLE5=Brand 'n Beer
TTITLE6=Gone With The Wind
TTITLE7=Just You Just Me
TTITLE8=It's A Wonderful World
EXTD=YEAR: 2008
EXTT0=
EXTT1=
EXTT2=
EXTT3=
EXTT4=
EXTT5=
EXTT6=
EXTT7=
EXTT8=
PLAYORDER=
